<svg id="visual" viewBox="0 0 900 600" width="900" height="600" xmlns="http://www.w3.org/2000/svg" xmlns:xlink="http://www.w3.org/1999/xlink" version="1.1"><rect x="0" y="0" width="900" height="600" fill="#000000"></rect><defs><linearGradient id="grad1_0" x1="33.3%" y1="0%" x2="100%" y2="100%"><stop offset="20%" stop-color="#000000" stop-opacity="1"></stop><stop offset="80%" stop-color="#000000" stop-opacity="1"></stop></linearGradient></defs><defs><linearGradient id="grad2_0" x1="0%" y1="0%" x2="66.7%" y2="100%"><stop offset="20%" stop-color="#000000" stop-opacity="1"></stop><stop offset="80%" stop-color="#000000" stop-opacity="1"></stop></linearGradient></defs><g transform="translate(900, 0)"><path d="M0 297.5C-29.2 275.8 -58.3 254.2 -74.5 229.2C-90.6 204.3 -93.8 176 -124.6 171.5C-155.4 167 -213.7 186.3 -240.6 174.8C-267.6 163.4 -263 121.1 -267.2 86.8C-271.5 52.6 -284.5 26.3 -297.5 0L0 0Z" fill="#FBAE3C"></path></g><g transform="translate(0, 600)"><path d="M0 -297.5C23 -270.4 46 -243.4 76.3 -234.9C106.7 -226.4 144.3 -236.4 159.9 -220.1C175.4 -203.7 168.9 -161.1 190.1 -138.1C211.4 -115.1 260.4 -111.7 282.9 -91.9C305.4 -72.2 301.4 -36.1 297.5 0L0 0Z" fill="#FBAE3C"></path></g></svg>