<!--?xml version="1.0" standalone="no"?-->
              <svg id="sw-js-blob-svg" viewBox="0 0 100 100" xmlns="http://www.w3.org/2000/svg" version="1.1">
                    <defs> 
                        <linearGradient id="sw-gradient" x1="0" x2="1" y1="1" y2="0">
                            <stop id="stop1" stop-color="rgba(255, 255, 0, 1)" offset="0%"></stop>
                            <stop id="stop2" stop-color="rgba(255, 255, 0, 1)" offset="100%"></stop>
                        </linearGradient>
                    </defs>
                <path fill="url(#sw-gradient)" d="M20,-24.9C27.7,-21.9,36.9,-18.4,41.5,-11.7C46.1,-5,46.1,5,40.7,10.7C35.4,16.4,24.7,17.9,17.1,23C9.4,28,4.7,36.7,-1.2,38.4C-7.2,40.1,-14.3,34.9,-20.3,29.2C-26.3,23.6,-31.1,17.6,-30.8,11.6C-30.6,5.6,-25.3,-0.5,-20,-3.3C-14.7,-6.2,-9.4,-5.9,-6,-10.2C-2.7,-14.6,-1.4,-23.6,2.4,-26.9C6.1,-30.2,12.3,-27.8,20,-24.9Z" width="100%" height="100%" transform="translate(50 50)" stroke-width="0" style="transition: all 0.3s ease 0s;" stroke="url(#sw-gradient)"></path>
              </svg>